<svg width="25" height="25" viewBox="0 0 25 25" fill="none" xmlns="http://www.w3.org/2000/svg">
<path d="M3.81844 11.575C3.38697 11.5762 2.96467 11.6995 2.60037 11.9307C2.23608 12.162 1.9447 12.4916 1.75993 12.8815C1.57515 13.2714 1.50455 13.7056 1.55628 14.134C1.60801 14.5623 1.77996 14.9673 2.05224 15.302L7.85656 22.4123C8.06352 22.6693 8.3288 22.8732 8.63037 23.007C8.93194 23.1409 9.2611 23.2009 9.59051 23.182C10.295 23.1441 10.9311 22.7672 11.3366 22.1476L23.3937 2.7297C23.3956 2.72648 23.3977 2.72326 23.3998 2.72008C23.513 2.54638 23.4763 2.20215 23.2428 1.9859C23.1786 1.92652 23.103 1.88089 23.0205 1.85184C22.9381 1.82278 22.8506 1.81092 22.7634 1.81696C22.6762 1.82301 22.5911 1.84685 22.5135 1.88701C22.4358 1.92717 22.3672 1.9828 22.3119 2.05047C22.3076 2.05579 22.3031 2.06103 22.2985 2.06619L10.1388 15.8048C10.0926 15.8571 10.0364 15.8997 9.9735 15.9301C9.91064 15.9604 9.84237 15.978 9.77266 15.9818C9.70295 15.9856 9.63318 15.9755 9.56741 15.952C9.50164 15.9286 9.44118 15.8924 9.38954 15.8454L5.35397 12.173C4.93484 11.7888 4.38702 11.5754 3.81844 11.575Z" fill="#FDA036"/>
</svg>
