<svg width="778" height="290" viewBox="0 0 778 290" fill="none" xmlns="http://www.w3.org/2000/svg">
<path opacity="0.5" d="M0 16C0 7.16345 7.16344 0 16 0H593C695.173 0 778 82.8273 778 185V290H16C7.16346 290 0 282.837 0 274V16Z" fill="#9E4600"/>
<path d="M0 15C0 6.71573 6.71573 0 15 0H401C409.284 0 416 6.71573 416 15V290H15C6.71574 290 0 283.284 0 275V15Z" fill="#FFF8DF"/>
<path d="M416 97.0586C416 144.054 525 144.059 525 144.059C525 144.059 416 168.059 416 241.059C416 314.059 380 168.059 380 168.059C380 168.059 416 50.0635 416 97.0586Z" fill="#FFF8DF"/>
</svg>
