<svg width="778" height="290" viewBox="0 0 778 290" fill="none" xmlns="http://www.w3.org/2000/svg">
<path opacity="0.5" d="M0 16C0 7.16345 7.16344 0 16 0H778V105C778 207.173 695.173 290 593 290H16C7.16346 290 0 282.837 0 274V16Z" fill="#9E4600"/>
<path d="M0 15C0 6.71573 6.71573 0 15 0H401C409.284 0 416 6.71573 416 15V290H15C6.71574 290 0 283.284 0 275V15Z" fill="#FFF8DF"/>
<path d="M416 98.0078C416 145.003 525 145.008 525 145.008C525 145.008 416 169.008 416 242.008C416 315.008 380 169.008 380 169.008C380 169.008 416 51.0127 416 98.0078Z" fill="#FFF8DF"/>
</svg>
