<svg width="1580" height="470" viewBox="0 0 1580 470" fill="none" xmlns="http://www.w3.org/2000/svg">
<g filter="url(#filter0_b_126_126)">
<path d="M0 111.368C0 187.602 71.4902 205.5 129.863 219.421C165.936 228.039 197.418 235.994 197.418 261.184C197.418 287.7 177.742 301.621 147.571 301.621C119.369 301.621 78.7048 289.026 76.7372 243.949L3.27937 244.612C5.24698 348.025 89.8546 371.226 146.26 371.226C216.438 371.226 280.058 338.081 280.058 254.555C280.058 187.602 218.406 170.366 165.28 156.445C120.681 145.839 82.64 135.895 82.64 106.728C82.64 82.2001 103.628 70.2678 139.045 70.2678C168.559 70.2678 196.106 84.8517 199.385 117.997L271.531 117.334C269.564 33.1452 197.418 0 140.357 0C60.3403 0 0 35.1339 0 111.368Z" fill="#9C9C9C" fill-opacity="0.12"/>
<path d="M317.442 237.321C317.442 311.566 375.815 371.89 447.305 371.89C520.763 371.89 581.103 312.229 581.103 237.321C581.103 163.075 520.763 102.751 447.305 102.751C375.815 102.751 317.442 163.075 317.442 237.321ZM391.556 237.321C391.556 200.861 413.2 173.019 447.305 173.019C483.378 173.019 506.99 200.861 506.99 237.321C506.99 271.129 483.378 296.982 447.305 296.982C413.2 296.982 391.556 271.129 391.556 237.321Z" fill="#9C9C9C" fill-opacity="0.12"/>
<path d="M700.474 3.97732H625.049V365.923H700.474V3.97732Z" fill="#9C9C9C" fill-opacity="0.12"/>
<path d="M828.367 470V336.756C838.861 357.969 864.44 371.89 896.578 371.89C962.821 371.89 1017.26 311.566 1017.26 237.321C1017.26 163.075 962.821 102.751 896.578 102.751C867.719 102.751 843.452 114.021 831.646 131.919C830.99 133.245 828.367 132.582 828.367 131.256V108.054H752.942V470H828.367ZM882.805 300.96C853.29 300.96 828.367 279.084 828.367 237.321C828.367 198.872 853.29 178.322 882.805 178.322C918.878 178.322 941.833 204.175 941.833 237.321C941.833 273.118 918.878 300.96 882.805 300.96Z" fill="#9C9C9C" fill-opacity="0.12"/>
<path d="M1060.55 108.051V366.584H1135.32V232.677C1135.32 191.577 1157.62 178.319 1193.69 178.319C1204.18 178.319 1227.14 179.645 1238.95 180.971V106.062C1226.48 104.074 1214.68 103.411 1205.5 104.074C1170.08 105.399 1149.75 125.95 1140.57 140.533C1139.91 141.859 1134.66 140.533 1134.66 139.208V108.051H1060.55Z" fill="#9C9C9C" fill-opacity="0.12"/>
<path d="M1260.59 237.321C1260.59 311.566 1318.96 371.89 1390.45 371.89C1463.91 371.89 1524.25 312.229 1524.25 237.321C1524.25 163.075 1463.91 102.751 1390.45 102.751C1318.3 102.751 1260.59 163.075 1260.59 237.321ZM1334.7 237.321C1334.7 200.861 1356.34 173.019 1390.45 173.019C1426.52 173.019 1450.13 200.861 1450.13 237.321C1450.13 271.129 1426.52 296.982 1390.45 296.982C1355.69 296.982 1334.7 271.129 1334.7 237.321Z" fill="#9C9C9C" fill-opacity="0.12"/>
<path d="M1486.87 65.6313C1486.87 91.4846 1507.2 112.697 1533.43 112.697C1559.01 112.697 1580 92.1475 1580 65.6313C1580 39.778 1559.67 18.5651 1533.43 18.5651C1507.2 19.228 1486.87 40.4409 1486.87 65.6313Z" fill="#9C9C9C" fill-opacity="0.12"/>
</g>
<defs>
<filter id="filter0_b_126_126" x="-27" y="-27" width="1634" height="524" filterUnits="userSpaceOnUse" color-interpolation-filters="sRGB">
<feFlood flood-opacity="0" result="BackgroundImageFix"/>
<feGaussianBlur in="BackgroundImageFix" stdDeviation="13.5"/>
<feComposite in2="SourceAlpha" operator="in" result="effect1_backgroundBlur_126_126"/>
<feBlend mode="normal" in="SourceGraphic" in2="effect1_backgroundBlur_126_126" result="shape"/>
</filter>
</defs>
</svg>
