<svg width="117" height="38" viewBox="0 0 117 38" fill="none" xmlns="http://www.w3.org/2000/svg">
<g clip-path="url(#clip0_157_151)">
<path d="M0 12.3064C0 17.8212 5.2961 19.116 9.62043 20.1231C12.2928 20.7465 14.625 21.3219 14.625 23.1442C14.625 25.0624 13.1674 26.0695 10.9323 26.0695C8.84302 26.0695 5.83056 25.1583 5.6848 21.8974L0.24294 21.9453C0.388704 29.4263 6.65656 31.1047 10.8351 31.1047C16.034 31.1047 20.7471 28.707 20.7471 22.6647C20.7471 17.8212 16.1798 16.5744 12.2442 15.5674C8.9402 14.8001 6.12209 14.0807 6.12209 11.9707C6.12209 10.1964 7.67691 9.33322 10.3007 9.33322C12.4871 9.33322 14.5278 10.3882 14.7708 12.786L20.1154 12.738C19.9697 6.64774 14.625 4.25 10.3978 4.25C4.4701 4.25 0 6.79161 0 12.3064Z" fill="white"/>
<path d="M23.5156 21.4184C23.5156 26.7894 27.84 31.1533 33.1361 31.1533C38.5779 31.1533 43.048 26.8373 43.048 21.4184C43.048 16.0475 38.5779 11.6836 33.1361 11.6836C27.84 11.6836 23.5156 16.0475 23.5156 21.4184ZM29.0061 21.4184C29.0061 18.7809 30.6095 16.7668 33.1361 16.7668C35.8084 16.7668 37.5576 18.7809 37.5576 21.4184C37.5576 23.8641 35.8084 25.7344 33.1361 25.7344C30.6095 25.7344 29.0061 23.8641 29.0061 21.4184Z" fill="white"/>
<path d="M51.8923 4.53711L46.3047 4.53711L46.3047 30.7205H51.8923L51.8923 4.53711Z" fill="white"/>
<path d="M61.3689 38.2506L61.3689 28.6117C62.1463 30.1462 64.0412 31.1533 66.422 31.1533C71.3294 31.1533 75.3622 26.7894 75.3622 21.4184C75.3622 16.0475 71.3294 11.6836 66.422 11.6836C64.2842 11.6836 62.4864 12.4988 61.6118 13.7936C61.5632 13.8895 61.3689 13.8416 61.3689 13.7457V12.0672H55.7812L55.7812 38.2506H61.3689ZM65.4017 26.0221C63.2152 26.0221 61.3689 24.4396 61.3689 21.4184C61.3689 18.637 63.2152 17.1504 65.4017 17.1504C68.074 17.1504 69.7746 19.0207 69.7746 21.4184C69.7746 24.008 68.074 26.0221 65.4017 26.0221Z" fill="white"/>
<path d="M78.5703 12.0655V30.7679H84.1094V21.081C84.1094 18.1078 85.7613 17.1487 88.4337 17.1487C89.2111 17.1487 90.9117 17.2446 91.7863 17.3405V11.9216C90.8631 11.7777 89.9885 11.7298 89.3083 11.7777C86.6845 11.8737 85.1783 13.3603 84.4981 14.4153C84.4495 14.5112 84.0608 14.4153 84.0608 14.3194V12.0655H78.5703Z" fill="white"/>
<path d="M93.3828 21.4184C93.3828 26.7894 97.7071 31.1533 103.003 31.1533C108.445 31.1533 112.915 26.8373 112.915 21.4184C112.915 16.0475 108.445 11.6836 103.003 11.6836C97.6586 11.6836 93.3828 16.0475 93.3828 21.4184ZM98.8733 21.4184C98.8733 18.7809 100.477 16.7668 103.003 16.7668C105.676 16.7668 107.425 18.7809 107.425 21.4184C107.425 23.8641 105.676 25.7344 103.003 25.7344C100.428 25.7344 98.8733 23.8641 98.8733 21.4184Z" fill="white"/>
<path d="M110.148 4.74659C110.148 6.61683 111.655 8.15139 113.598 8.15139C115.493 8.15139 117.048 6.66479 117.048 4.74659C117.048 2.87635 115.542 1.3418 113.598 1.3418C111.655 1.38975 110.148 2.92431 110.148 4.74659Z" fill="white"/>
</g>
<defs>
<clipPath id="clip0_157_151">
<rect width="117" height="38" fill="white"/>
</clipPath>
</defs>
</svg>
