<svg width="921" height="274" viewBox="0 0 921 274" fill="none" xmlns="http://www.w3.org/2000/svg">
<path d="M0 64.9251C0 109.368 41.6724 119.802 75.6985 127.918C96.7259 132.942 115.077 137.579 115.077 152.265C115.077 167.723 103.608 175.839 86.0211 175.839C69.5815 175.839 45.8779 168.496 44.731 142.217L1.91158 142.603C3.05853 202.891 52.3773 216.417 85.2564 216.417C126.164 216.417 163.249 197.094 163.249 148.4C163.249 109.368 127.311 99.32 96.3436 91.2043C70.3461 85.021 48.1718 79.2241 48.1718 62.2199C48.1718 47.9209 60.4059 40.9647 81.051 40.9647C98.2552 40.9647 114.312 49.4668 116.224 68.7897L158.279 68.4032C157.132 19.323 115.077 0 81.8156 0C35.1731 0 0 20.4823 0 64.9251Z" fill="#135D4C"/>
<path d="M185.041 138.353C185.041 181.636 219.067 216.804 260.739 216.804C303.559 216.804 338.732 182.023 338.732 138.353C338.732 95.0695 303.559 59.9018 260.739 59.9018C219.067 59.9018 185.041 95.0695 185.041 138.353ZM228.243 138.353C228.243 117.098 240.859 100.866 260.739 100.866C281.767 100.866 295.53 117.098 295.53 138.353C295.53 158.062 281.767 173.134 260.739 173.134C240.859 173.134 228.243 158.062 228.243 138.353Z" fill="#135D4C"/>
<path d="M408.315 2.31869H364.348V213.325H408.315V2.31869Z" fill="#135D4C"/>
<path d="M482.865 274V196.322C488.982 208.688 503.892 216.804 522.625 216.804C561.239 216.804 592.972 181.636 592.972 138.353C592.972 95.0695 561.239 59.9018 522.625 59.9018C505.803 59.9018 491.658 66.4716 484.776 76.906C484.394 77.6789 482.865 77.2924 482.865 76.5195V62.9934H438.898V274H482.865ZM514.597 175.453C497.393 175.453 482.865 162.7 482.865 138.353C482.865 115.938 497.393 103.958 514.597 103.958C535.624 103.958 549.005 119.03 549.005 138.353C549.005 159.222 535.624 175.453 514.597 175.453Z" fill="#135D4C"/>
<path d="M618.206 62.9915V213.71H661.79V135.646C661.79 111.685 674.789 103.956 695.816 103.956C701.933 103.956 715.314 104.729 722.196 105.502V61.8321C714.932 60.6727 708.05 60.2863 702.698 60.6727C682.053 61.4457 670.201 73.4259 664.848 81.928C664.466 82.7009 661.408 81.928 661.408 81.1551V62.9915H618.206Z" fill="#135D4C"/>
<path d="M734.81 138.353C734.81 181.636 768.836 216.804 810.508 216.804C853.328 216.804 888.501 182.023 888.501 138.353C888.501 95.0695 853.328 59.9018 810.508 59.9018C768.454 59.9018 734.81 95.0695 734.81 138.353ZM778.012 138.353C778.012 117.098 790.628 100.866 810.508 100.866C831.536 100.866 845.299 117.098 845.299 138.353C845.299 158.062 831.536 173.134 810.508 173.134C790.246 173.134 778.012 158.062 778.012 138.353Z" fill="#135D4C"/>
<path d="M866.711 38.2617C866.711 53.3335 878.563 65.7002 893.856 65.7002C908.766 65.7002 921 53.72 921 38.2617C921 23.1898 909.148 10.8231 893.856 10.8231C878.563 11.2095 866.711 23.5762 866.711 38.2617Z" fill="#135D4C"/>
</svg>
