<svg width="364" height="226" viewBox="0 0 364 226" fill="none" xmlns="http://www.w3.org/2000/svg">
<path d="M0 0H264V126C264 181.228 219.228 226 164 226H0V0Z" fill="#C66B00"/>
<path d="M9 15C9 6.71573 15.7157 0 24 0H349C357.284 0 364 6.71573 364 15V98C364 106.284 357.284 113 349 113H24C15.7157 113 9 106.284 9 98V15Z" fill="#FFF8DF"/>
<path d="M227.329 111.372C203.229 111.372 179 163 179 163C179 163 190.918 111.372 153.482 111.372C116.046 111.372 190.918 93 190.918 93C190.918 93 251.429 111.372 227.329 111.372Z" fill="#FFF8DF"/>
</svg>
