<svg width="788" height="230" viewBox="0 0 788 230" fill="none" xmlns="http://www.w3.org/2000/svg">
<g clip-path="url(#clip0_146_148)">
<path fill-rule="evenodd" clip-rule="evenodd" d="M267.213 225.76V157.184C295.907 158.725 310.839 149.607 310.579 120.456V81.8013C311.358 57.9152 298.115 46.8711 268.381 46.8711H240.206V225.632H267.213V225.76ZM267.213 68.3172C277.86 67.5467 283.702 68.8309 283.702 85.3971V127.776C282.923 136.123 275.003 135.866 267.213 135.866V68.3172Z" fill="#E9E9E9"/>
<path fill-rule="evenodd" clip-rule="evenodd" d="M339.012 47.0039C339.012 47.0039 351.477 104.279 353.684 123.028H354.203C354.982 109.031 368.356 47.0039 368.356 47.0039H393.545L349.919 225.764H324.21L340.181 158.986L311.226 47.0039H339.012Z" fill="#E9E9E9"/>
<path fill-rule="evenodd" clip-rule="evenodd" d="M439.38 113.009V76.5376C439.38 67.5482 436.653 65.4935 431.2 65.4935C425.616 65.4935 422.76 67.5482 422.76 76.5376V197.509C422.76 206.499 425.487 208.553 431.2 208.553C436.523 208.553 439.38 206.499 439.38 197.509V158.855H466.256V199.821C466.256 223.193 447.689 229.999 430.94 229.999C414.45 229.999 395.883 223.193 395.883 199.821V74.3545C395.883 50.982 414.45 44.1758 430.94 44.1758C447.689 44.1758 466.256 50.982 466.256 74.3545V113.009H439.38Z" fill="#E9E9E9"/>
<path fill-rule="evenodd" clip-rule="evenodd" d="M474.047 225.764H498.456L504.299 177.35H523.386L528.45 225.764H555.586L535.071 47.0039H494.691L474.047 225.764ZM506.896 153.849L513.518 79.4941H515.336L520.919 153.849H506.896Z" fill="#E9E9E9"/>
<path fill-rule="evenodd" clip-rule="evenodd" d="M567.271 225.764V47.0039H627.128V70.2479H594.148V225.764H567.271Z" fill="#E9E9E9"/>
<path fill-rule="evenodd" clip-rule="evenodd" d="M664.262 225.76V157.184C692.957 158.725 707.888 149.607 707.629 120.456V81.8013C708.408 57.9152 695.164 46.8711 665.431 46.8711H637.255V225.632H664.262V225.76ZM664.262 68.3172C674.909 67.5467 680.752 68.8309 680.752 85.3971V127.776C679.973 136.123 672.053 135.866 664.262 135.866V68.3172Z" fill="#E9E9E9"/>
<path fill-rule="evenodd" clip-rule="evenodd" d="M717.627 199.176C717.627 222.548 736.194 229.354 752.684 229.354C769.433 229.354 788 222.548 788 199.176V73.581C788 50.2086 769.433 43.4023 752.684 43.4023C736.194 43.4023 717.627 50.2086 717.627 73.581V199.176ZM744.504 75.7642C744.504 66.7748 747.36 64.72 752.813 64.72C758.137 64.72 760.993 66.7748 760.993 75.7642V196.736C760.993 205.725 758.267 207.78 752.813 207.78C747.23 207.78 744.504 205.853 744.504 196.736V75.7642Z" fill="#E9E9E9"/>
<path fill-rule="evenodd" clip-rule="evenodd" d="M74.528 226.535H87.512L87.7716 202.393C81.2796 211.767 77.9038 220.5 74.528 226.535Z" fill="#E9E9E9"/>
<path fill-rule="evenodd" clip-rule="evenodd" d="M87.6423 74.6211C72.8405 92.0862 58.4283 112.12 48.95 131.254H62.713C67.2574 122.393 80.7608 104.415 87.6423 96.7093V74.6211Z" fill="#E9E9E9"/>
<path fill-rule="evenodd" clip-rule="evenodd" d="M87.642 112.631C85.0452 115.97 76.4758 128.041 74.7879 131.252H87.3824C87.6421 130.866 87.642 112.631 87.642 112.631Z" fill="#E9E9E9"/>
<path fill-rule="evenodd" clip-rule="evenodd" d="M87.6421 42.8906H0V131.115H39.0819C52.0659 106.844 69.5943 84.7555 87.6421 65.3641V42.8906Z" fill="#E9E9E9"/>
<path fill-rule="evenodd" clip-rule="evenodd" d="M13.763 226.534H21.5534C28.3051 200.465 41.6786 166.177 57.5191 139.594H44.5351C28.8245 167.461 20.1252 197.383 13.763 226.534Z" fill="#E9E9E9"/>
<path fill-rule="evenodd" clip-rule="evenodd" d="M32.4598 226.534H41.5486C51.027 198.282 63.1021 167.204 82.9676 139.594H69.5941C51.806 167.718 40.8994 198.795 32.4598 226.534Z" fill="#E9E9E9"/>
<path fill-rule="evenodd" clip-rule="evenodd" d="M0 226.534H1.16856C4.41457 206.757 17.9179 167.718 34.148 139.594H0V226.534Z" fill="#E9E9E9"/>
<path fill-rule="evenodd" clip-rule="evenodd" d="M50.8961 226.526H64.1398C71.5407 211.5 78.2924 195.833 87.7707 180.68V151.785C70.7616 175.8 59.9849 204.18 50.8961 226.526Z" fill="#E9E9E9"/>
<path fill-rule="evenodd" clip-rule="evenodd" d="M153.861 33.7744L150.485 32.4902C144.512 36.9849 137.371 42.6354 137.371 42.6354H126.594C137.89 29.4082 163.469 10.6588 177.102 1.15578L174.246 0C148.537 16.9514 120.751 35.7007 96.3414 64.852V86.1697C112.571 66.9068 132.956 49.9553 153.861 33.7744Z" fill="#FCAB4F"/>
<path fill-rule="evenodd" clip-rule="evenodd" d="M190.216 34.4181L186.451 33.5192C181.646 35.9591 176.842 39.2981 172.558 42.7654H162.69C166.325 38.2707 183.984 27.355 183.984 27.355L180.088 25.6855C146.46 47.3885 120.102 71.403 96.3414 101.325V120.716C122.309 86.2997 149.706 60.3589 190.216 34.4181Z" fill="#FCAB4F"/>
<path fill-rule="evenodd" clip-rule="evenodd" d="M122.959 33.5156L119.193 31.9746C119.193 31.9746 110.494 38.7809 105.95 42.8903H96.3414V56.7596C102.574 49.9534 111.013 42.3766 122.959 33.5156Z" fill="#FCAB4F"/>
<path fill-rule="evenodd" clip-rule="evenodd" d="M194.76 72.0424L192.164 68.7035C189.826 70.3729 186.191 73.1982 183.724 74.8676V59.7141C187.23 56.8888 195.15 50.9815 201.382 47.0005L197.227 45.0742C161.521 67.8045 124.647 99.9095 102.704 131.116H125.166C147.369 105.432 170.61 88.0949 194.76 72.0424Z" fill="#FCAB4F"/>
<path fill-rule="evenodd" clip-rule="evenodd" d="M199.564 96.1838C194.89 98.8806 188.398 104.274 184.113 107.356L183.853 100.678C183.853 100.678 197.097 90.7902 205.147 85.9102L203.329 82.8281C182.945 95.5417 162.689 112.365 142.434 131.114H163.728C176.712 119.299 187.099 108.641 200.473 99.3943L199.564 96.1838Z" fill="#FCAB4F"/>
<path fill-rule="evenodd" clip-rule="evenodd" d="M196.968 118.526L193.981 115.572C188.788 120.581 182.555 126.488 177.362 131.111H184.633C187.359 127.387 192.813 121.865 196.968 118.526Z" fill="#FCAB4F"/>
<path fill-rule="evenodd" clip-rule="evenodd" d="M96.2118 139.717L96.3416 167.455C102.314 158.98 108.676 149.862 118.155 139.717H96.2118Z" fill="#E9E9E9"/>
<path fill-rule="evenodd" clip-rule="evenodd" d="M96.3417 188.26V226.143C109.975 197.763 131.788 163.474 156.068 139.717H134.904C121.011 153.971 105.431 174.775 96.3417 188.26Z" fill="#E9E9E9"/>
<path fill-rule="evenodd" clip-rule="evenodd" d="M169.701 139.72C144.513 167.715 123.219 195.839 110.235 226.66H183.984V139.72C184.114 139.463 169.701 139.72 169.701 139.72Z" fill="#E9E9E9"/>
</g>
<defs>
<clipPath id="clip0_146_148">
<rect width="788" height="230" fill="white"/>
</clipPath>
</defs>
</svg>
