<svg width="280" height="279" viewBox="0 0 280 279" fill="none" xmlns="http://www.w3.org/2000/svg">
<path d="M135.084 4.45752C136.097 -0.991308 143.903 -0.991301 144.916 4.45753L149.325 28.1868C150.214 32.9729 156.723 33.7952 158.775 29.3806L168.947 7.49331C171.282 2.46744 178.844 4.40894 178.469 9.93836L176.839 34.0186C176.51 38.8755 182.61 41.2908 185.695 37.5251L200.99 18.855C204.502 14.5679 211.344 18.3289 209.606 23.5915L202.038 46.5096C200.511 51.1321 205.819 54.9886 209.744 52.1084L229.202 37.8286C233.67 34.5497 239.361 39.8939 236.369 44.5589L223.339 64.8749C220.711 68.9726 224.893 74.028 229.411 72.2143L251.808 63.2221C256.951 61.1573 261.134 67.7489 257.076 71.5233L239.404 87.9607C235.839 91.2761 238.632 97.2126 243.459 96.5794L267.389 93.4398C272.884 92.7189 275.297 100.144 270.428 102.79L249.222 114.316C244.945 116.641 246.175 123.086 251.007 123.673L274.966 126.583C280.468 127.251 280.958 135.043 275.584 136.395L252.178 142.286C247.457 143.474 247.045 150.022 251.58 151.792L274.063 160.569C279.225 162.585 277.763 170.253 272.221 170.227L248.085 170.111C243.217 170.088 241.19 176.328 245.142 179.17L264.736 193.263C269.235 196.499 265.911 203.563 260.549 202.159L237.201 196.045C232.492 194.812 228.977 200.352 232.097 204.088L247.571 222.61C251.124 226.864 246.147 232.879 241.304 230.186L220.21 218.457C215.955 216.092 211.172 220.583 213.266 224.978L223.647 246.767C226.031 251.77 219.715 256.359 215.693 252.546L198.178 235.94C194.646 232.59 188.896 235.751 189.831 240.529L194.467 264.215C195.532 269.653 188.273 272.527 185.326 267.834L172.491 247.394C169.902 243.271 163.548 244.903 163.265 249.763L161.865 273.858C161.544 279.39 153.798 280.369 152.111 275.09L144.763 252.1C143.281 247.463 136.719 247.463 135.237 252.1L127.889 275.09C126.202 280.369 118.456 279.39 118.135 273.858L116.735 249.763C116.452 244.903 110.098 243.271 107.509 247.394L94.6741 267.834C91.727 272.527 84.4683 269.653 85.5328 264.215L90.1688 240.529C91.1039 235.751 85.3544 232.59 81.8218 235.94L64.3072 252.546C60.2854 256.359 53.9694 251.77 56.3531 246.767L66.7339 224.978C68.8277 220.583 64.0449 216.092 59.7903 218.457L38.6962 230.186C33.8525 232.879 28.8762 226.864 32.4292 222.61L47.9026 204.088C51.0235 200.352 47.5079 194.812 42.7987 196.045L19.4506 202.159C14.0893 203.563 10.7652 196.499 15.2644 193.263L34.8581 179.17C38.8101 176.328 36.7826 170.088 31.9146 170.111L7.77949 170.227C2.23747 170.253 0.774603 162.585 5.93721 160.569L28.42 151.792C32.9547 150.022 32.5428 143.474 27.8219 142.286L4.4163 136.395C-0.958208 135.043 -0.468 127.251 5.03365 126.583L28.9929 123.673C33.8255 123.086 35.0549 116.641 30.7778 114.316L9.57237 102.79C4.70308 100.144 7.11554 92.7189 12.6105 93.4398L36.5408 96.5794C41.3675 97.2126 44.1611 91.2761 40.5965 87.9607L22.9236 71.5233C18.8655 67.7489 23.0487 61.1573 28.1918 63.2221L50.5895 72.2143C55.107 74.028 59.2892 68.9726 56.6611 64.875L43.6313 44.5589C40.6393 39.8939 46.3303 34.5497 50.7983 37.8286L70.2561 52.1084C74.1807 54.9886 79.4886 51.1321 77.9622 46.5096L70.3941 23.5915C68.6563 18.3289 75.4976 14.5679 79.0097 18.855L94.305 37.5251C97.39 41.2908 103.49 38.8755 103.161 34.0186L101.531 9.93836C101.156 4.40894 108.718 2.46744 111.053 7.49331L121.225 29.3806C123.277 33.7952 129.786 32.9729 130.675 28.1868L135.084 4.45752Z" fill="#7A6D6D"/>
</svg>
