<svg width="231" height="230" viewBox="0 0 231 230" fill="none" xmlns="http://www.w3.org/2000/svg">
<path d="M110.584 4.45749C111.597 -0.991335 119.403 -0.991316 120.416 4.45751L122.982 18.2709C123.872 23.057 130.381 23.8793 132.433 19.4647L138.354 6.72359C140.689 1.69773 148.251 3.63925 147.877 9.16866L146.927 23.1863C146.598 28.0432 152.699 30.4585 155.784 26.6928L164.687 15.8245C168.199 11.5374 175.041 15.2984 173.303 20.561L168.897 33.9022C167.371 38.5247 172.679 42.3811 176.603 39.501L187.93 31.1884C192.398 27.9094 198.089 33.2536 195.097 37.9187L187.512 49.7451C184.884 53.8428 189.066 58.8981 193.584 57.0844L206.622 51.8499C211.765 49.785 215.948 56.3766 211.89 60.1511L201.603 69.7196C198.038 73.035 200.832 78.9716 205.658 78.3383L219.589 76.5107C225.084 75.7898 227.496 83.2146 222.627 85.8613L210.283 92.5707C206.005 94.8955 207.235 101.34 212.067 101.927L226.015 103.621C231.516 104.29 232.007 112.081 226.632 113.434L213.007 116.863C208.286 118.051 207.874 124.599 212.409 126.369L225.497 131.478C230.659 133.494 229.196 141.163 223.654 141.136L209.605 141.069C204.737 141.045 202.709 147.285 206.661 150.128L218.067 158.332C222.567 161.568 219.242 168.632 213.881 167.228L200.29 163.668C195.58 162.435 192.065 167.975 195.186 171.711L204.193 182.493C207.746 186.747 202.77 192.762 197.926 190.069L185.647 183.241C181.392 180.876 176.609 185.367 178.703 189.762L184.746 202.446C187.13 207.449 180.814 212.038 176.792 208.225L166.596 198.558C163.064 195.209 157.314 198.37 158.249 203.147L160.948 216.935C162.013 222.374 154.754 225.248 151.807 220.554L144.335 208.656C141.747 204.533 135.392 206.165 135.109 211.025L134.294 225.051C133.973 230.584 126.228 231.562 124.54 226.283L120.263 212.9C118.781 208.263 112.219 208.263 110.737 212.9L106.46 226.283C104.772 231.562 97.0271 230.583 96.7056 225.051L95.8905 211.025C95.6081 206.165 89.2533 204.533 86.6645 208.656L79.1932 220.554C76.246 225.248 68.9873 222.374 70.0519 216.935L72.7506 203.147C73.6857 198.369 67.9362 195.209 64.4036 198.558L54.2079 208.225C50.1861 212.038 43.8702 207.449 46.2538 202.446L52.2968 189.762C54.3905 185.367 49.6078 180.876 45.3531 183.241L33.0738 190.069C28.23 192.762 23.2537 186.747 26.8068 182.493L35.8142 171.711C38.9351 167.975 35.4196 162.435 30.7103 163.668L17.1188 167.228C11.7575 168.632 8.43349 161.568 12.9327 158.332L24.3386 150.128C28.2906 147.285 26.2631 141.045 21.3951 141.069L7.34552 141.136C1.8035 141.163 0.340651 133.494 5.50326 131.478L18.591 126.369C23.1257 124.599 22.7137 118.051 17.9929 116.863L4.36794 113.434C-1.00656 112.081 -0.516342 104.29 4.9853 103.621L18.9326 101.927C23.7651 101.34 24.9945 94.8955 20.7174 92.5707L8.37323 85.8612C3.50393 83.2146 5.91643 75.7898 11.4114 76.5107L25.3418 78.3383C30.1685 78.9716 32.962 73.035 29.3975 69.7196L19.1097 60.1511C15.0515 56.3766 19.2347 49.785 24.3778 51.8499L37.416 57.0844C41.9336 58.8981 46.1157 53.8428 43.4876 49.7451L35.9027 37.9186C32.9107 33.2536 38.6017 27.9094 43.0697 31.1884L54.3965 39.501C58.3211 42.3811 63.6291 38.5247 62.1026 33.9021L57.6971 20.5609C55.9593 15.2984 62.8005 11.5374 66.3127 15.8245L75.2164 26.6928C78.3014 30.4585 84.4017 28.0432 84.0728 23.1863L83.1234 9.16863C82.749 3.63922 90.3106 1.69773 92.6463 6.7236L98.5674 19.4647C100.619 23.8793 107.128 23.057 108.018 18.2709L110.584 4.45749Z" fill="#A05651"/>
</svg>
