<svg width="230" height="231" viewBox="0 0 230 231" fill="none" xmlns="http://www.w3.org/2000/svg">
<path d="M111.067 4.16604C111.877 -0.193026 118.123 -0.193043 118.933 4.16602L122.716 24.5255C123.427 28.3544 128.634 29.0123 130.276 25.4806L139.003 6.70147C140.871 2.68078 146.921 4.23396 146.621 8.6575L145.222 29.3181C144.959 33.2037 149.839 35.1359 152.307 32.1233L165.43 16.1045C168.24 12.6749 173.713 15.6837 172.323 19.8937L165.829 39.5573C164.608 43.2553 168.855 46.3405 171.994 44.0363L188.689 31.7844C192.263 29.1613 196.816 33.4366 194.422 37.1687L183.243 54.5996C181.141 57.8778 184.486 61.922 188.1 60.4711L207.317 52.7559C211.432 51.104 214.778 56.3773 211.532 59.3968L196.369 73.5C193.517 76.1523 195.752 80.9015 199.613 80.3949L220.145 77.7012C224.541 77.1245 226.471 83.0643 222.576 85.1816L204.382 95.0707C200.96 96.9305 201.944 102.086 205.81 102.556L226.366 105.053C230.768 105.588 231.16 111.821 226.86 112.903L206.778 117.957C203.002 118.907 202.672 124.145 206.3 125.562L225.59 133.093C229.72 134.705 228.55 140.84 224.116 140.819L203.408 140.719C199.514 140.701 197.892 145.693 201.054 147.967L217.865 160.058C221.464 162.647 218.805 168.298 214.516 167.175L194.483 161.929C190.716 160.943 187.904 165.374 190.4 168.363L203.676 184.255C206.519 187.658 202.538 192.47 198.663 190.316L180.564 180.253C177.161 178.36 173.334 181.954 175.009 185.469L183.916 204.164C185.823 208.167 180.77 211.838 177.553 208.787L162.525 194.539C159.699 191.86 155.1 194.389 155.848 198.211L159.825 218.533C160.677 222.884 154.87 225.183 152.512 221.428L141.5 203.891C139.429 200.593 134.345 201.898 134.119 205.786L132.918 226.459C132.661 230.885 126.465 231.668 125.115 227.445L118.81 207.72C117.624 204.011 112.376 204.011 111.19 207.72L104.885 227.445C103.535 231.668 97.339 230.885 97.0818 226.459L95.8805 205.786C95.6546 201.898 90.5707 200.593 88.4997 203.891L77.4877 221.428C75.13 225.183 69.323 222.884 70.1746 218.533L74.1523 198.211C74.9003 194.389 70.3008 191.86 67.4746 194.539L52.4473 208.787C49.2298 211.838 44.1771 208.167 46.084 204.164L54.9906 185.469C56.6657 181.954 52.8395 178.36 49.4358 180.253L31.3372 190.316C27.4623 192.47 23.4812 187.658 26.3236 184.255L39.5996 168.363C42.0964 165.374 39.2839 160.943 35.5165 161.929L15.4841 167.175C11.195 168.298 8.53579 162.647 12.1351 160.058L28.9463 147.967C32.1079 145.693 30.4859 140.701 26.5915 140.719L5.88383 140.819C1.45021 140.84 0.279896 134.705 4.40998 133.093L23.7 125.562C27.3278 124.145 26.9982 118.907 23.2216 117.957L3.13977 112.903C-1.15983 111.821 -0.767681 105.588 3.63364 105.053L24.1905 102.556C28.0565 102.086 29.04 96.9305 25.6184 95.0707L7.42431 85.1816C3.52887 83.0643 5.45884 77.1244 9.85483 77.7012L30.3868 80.3949C34.2482 80.9015 36.483 76.1523 33.6313 73.5L18.4682 59.3968C15.2217 56.3773 18.5682 51.104 22.6827 52.7559L41.8997 60.4711C45.5138 61.922 48.8595 57.8778 46.757 54.5996L35.5776 37.1687C33.184 33.4366 37.7368 29.1612 41.3112 31.7844L58.0058 44.0363C61.1454 46.3405 65.3918 43.2553 64.1707 39.5573L57.6773 19.8937C56.2871 15.6837 61.7601 12.6749 64.5698 16.1045L77.693 32.1233C80.161 35.1359 85.0412 33.2037 84.7781 29.3181L83.3789 8.65752C83.0793 4.23398 89.1286 2.68077 90.9972 6.70147L99.7243 25.4806C101.366 29.0123 106.573 28.3544 107.284 24.5255L111.067 4.16604Z" fill="#64696D"/>
</svg>
