<svg width="589" height="659" viewBox="0 0 589 659" fill="none" xmlns="http://www.w3.org/2000/svg">
<rect x="40" y="42" width="509" height="575" rx="51" fill="#6A5C3E"/>
<path d="M289.624 21.4937C290.802 16.3019 298.198 16.3019 299.376 21.4936L303.307 38.8214C304.428 43.7641 311.345 44.094 312.932 39.2803L318.4 22.6905C320.066 17.6369 327.424 18.3367 328.107 23.6137L330.435 41.5959C331.085 46.6163 337.928 47.6025 339.969 42.9699L346.922 27.1917C349.064 22.3295 356.308 23.7229 356.494 29.0328L357.143 47.5667C357.319 52.614 364.015 54.2467 366.495 49.8474L374.892 34.9529C377.495 30.3357 384.55 32.4101 384.239 37.7014L383.126 56.6581C382.831 61.6822 389.307 63.945 392.205 59.8305L402.019 45.8991C405.061 41.5802 411.851 44.3166 411.048 49.5381L408.094 68.757C407.333 73.7089 413.518 76.5783 416.808 72.7993L428.014 59.9246C431.469 55.9563 437.921 59.3287 436.634 64.4301L431.77 83.7153C430.552 88.5469 436.378 91.9929 440.025 88.598L452.601 76.8925C456.433 73.3253 462.476 77.3009 460.717 82.2323L453.896 101.353C452.232 106.018 457.634 110.003 461.6 107.038L475.51 96.6353C479.681 93.5165 485.246 98.0553 483.029 102.768L474.235 121.463C472.141 125.914 477.058 130.396 481.296 127.9L496.487 118.955C500.949 116.327 505.972 121.382 503.317 125.827L492.574 143.811C490.069 148.004 494.445 152.932 498.905 150.941L515.293 143.622C519.994 141.523 524.416 147.04 521.345 151.171L508.725 168.144C505.83 172.036 509.617 177.356 514.242 175.895L531.709 170.381C536.591 168.84 540.359 174.758 536.899 178.529L522.526 194.19C519.268 197.74 522.423 203.391 527.155 202.481L545.538 198.944C550.539 197.982 553.609 204.236 549.79 207.604L533.843 221.666C530.25 224.834 532.738 230.754 537.516 230.403L556.611 229C561.666 228.628 564.002 235.149 559.86 238.072L542.565 250.277C538.67 253.026 540.466 259.149 545.229 259.357L564.786 260.214C569.833 260.435 571.406 267.148 566.982 269.588L548.61 279.721C544.449 282.016 545.535 288.275 550.225 289.035L569.96 292.234C574.936 293.04 575.727 299.869 571.067 301.791L551.92 309.691C547.535 311.5 547.898 317.827 552.461 319.123L572.064 324.69C576.909 326.066 576.909 332.934 572.063 334.31L552.461 339.877C547.898 341.173 547.535 347.5 551.92 349.309L571.067 357.209C575.727 359.131 574.936 365.96 569.96 366.766L550.225 369.965C545.535 370.725 544.449 376.984 548.61 379.279L566.982 389.412C571.406 391.852 569.833 398.565 564.786 398.786L545.229 399.643C540.466 399.851 538.67 405.974 542.565 408.723L559.86 420.928C564.002 423.851 561.666 430.372 556.611 430L537.516 428.597C532.738 428.246 530.25 434.166 533.843 437.334L549.79 451.396C553.609 454.764 550.539 461.018 545.538 460.056L527.155 456.519C522.423 455.609 519.268 461.26 522.526 464.81L536.899 480.471C540.359 484.242 536.59 490.16 531.709 488.619L514.242 483.105C509.617 481.644 505.83 486.964 508.725 490.856L521.345 507.829C524.416 511.96 519.994 517.477 515.293 515.378L498.905 508.059C494.445 506.068 490.069 510.996 492.574 515.189L503.317 533.173C505.972 537.618 500.949 542.673 496.487 540.045L481.296 531.1C477.058 528.604 472.141 533.086 474.235 537.537L483.029 556.232C485.246 560.945 479.681 565.484 475.51 562.365L461.6 551.962C457.634 548.997 452.232 552.982 453.896 557.647L460.717 576.768C462.476 581.699 456.433 585.675 452.601 582.108L440.025 570.402C436.378 567.007 430.552 570.453 431.77 575.285L436.634 594.57C437.921 599.671 431.469 603.044 428.014 599.075L416.808 586.201C413.518 582.422 407.333 585.291 408.094 590.243L411.048 609.462C411.851 614.683 405.061 617.42 402.019 613.101L392.205 599.169C389.307 595.055 382.831 597.318 383.126 602.342L384.239 621.299C384.55 626.59 377.495 628.664 374.892 624.047L366.495 609.153C364.015 604.753 357.319 606.386 357.143 611.433L356.494 629.967C356.308 635.277 349.064 636.67 346.922 631.808L339.969 616.03C337.928 611.398 331.085 612.384 330.435 617.404L328.107 635.386C327.424 640.663 320.065 641.363 318.4 636.309L312.932 619.72C311.345 614.906 304.428 615.236 303.307 620.179L299.376 637.506C298.198 642.698 290.802 642.698 289.624 637.506L285.693 620.179C284.572 615.236 277.655 614.906 276.068 619.72L270.6 636.309C268.935 641.363 261.576 640.663 260.893 635.386L258.565 617.404C257.915 612.384 251.072 611.398 249.031 616.03L242.078 631.808C239.936 636.67 232.692 635.277 232.506 629.967L231.857 611.433C231.681 606.386 224.985 604.753 222.505 609.153L214.108 624.047C211.505 628.664 204.45 626.59 204.761 621.299L205.874 602.342C206.169 597.318 199.693 595.055 196.795 599.169L186.981 613.101C183.939 617.42 177.149 614.683 177.952 609.462L180.906 590.243C181.667 585.291 175.482 582.422 172.192 586.201L160.986 599.075C157.531 603.044 151.079 599.671 152.366 594.57L157.23 575.285C158.448 570.453 152.622 567.007 148.975 570.402L136.399 582.107C132.567 585.675 126.524 581.699 128.283 576.768L135.104 557.647C136.768 552.982 131.366 548.997 127.4 551.962L113.49 562.365C109.319 565.484 103.754 560.945 105.971 556.232L114.765 537.537C116.859 533.086 111.942 528.604 107.704 531.1L92.5128 540.045C88.051 542.673 83.0279 537.618 85.6834 533.173L96.4264 515.189C98.9314 510.996 94.5553 506.068 90.0953 508.059L73.7066 515.378C69.0062 517.477 64.5839 511.96 67.6555 507.829L80.2753 490.856C83.1695 486.964 79.3831 481.644 74.7577 483.105L57.2906 488.619C52.4095 490.16 48.6406 484.242 52.1015 480.471L66.4739 464.81C69.732 461.26 66.5771 455.609 61.8454 456.519L43.4615 460.056C38.4614 461.018 35.3908 454.764 39.2099 451.396L55.1574 437.334C58.7504 434.166 56.2616 428.246 51.4841 428.597L32.3894 430C27.334 430.372 24.9984 423.851 29.1399 420.928L46.435 408.723C50.3303 405.974 48.5339 399.851 43.7709 399.643L24.2136 398.786C19.1668 398.565 17.5942 391.852 22.0176 389.412L40.39 379.279C44.5506 376.984 43.4654 370.725 38.7751 369.965L19.0399 366.766C14.0641 365.96 13.2731 359.131 17.9328 357.209L37.0804 349.309C41.4651 347.5 41.1022 341.173 36.5393 339.877L16.9365 334.31C12.0911 332.934 12.0911 326.066 16.9365 324.69L36.5393 319.123C41.1021 317.827 41.4651 311.5 37.0804 309.691L17.9328 301.791C13.2731 299.869 14.0641 293.04 19.0399 292.234L38.7751 289.035C43.4654 288.275 44.5506 282.016 40.39 279.721L22.0176 269.588C17.5942 267.148 19.1668 260.435 24.2136 260.214L43.7709 259.357C48.5339 259.149 50.3303 253.026 46.435 250.277L29.14 238.072C24.9984 235.149 27.334 228.628 32.3894 229L51.4841 230.403C56.2616 230.754 58.7505 224.834 55.1574 221.666L39.2099 207.604C35.3908 204.236 38.4615 197.982 43.4615 198.944L61.8454 202.481C66.5771 203.391 69.732 197.74 66.4739 194.19L52.1015 178.529C48.6406 174.758 52.4095 168.84 57.2906 170.381L74.7576 175.895C79.3831 177.356 83.1696 172.036 80.2754 168.144L67.6554 151.171C64.5839 147.04 69.0062 141.523 73.7065 143.622L90.0953 150.941C94.5552 152.932 98.9313 148.004 96.4264 143.811L85.6833 125.827C83.0279 121.382 88.051 116.327 92.5128 118.955L107.704 127.9C111.942 130.396 116.859 125.914 114.765 121.463L105.971 102.768C103.754 98.0554 109.319 93.5165 113.49 96.6352L127.4 107.038C131.366 110.003 136.768 106.018 135.104 101.353L128.283 82.2323C126.524 77.3009 132.567 73.3252 136.399 76.8925L148.975 88.598C152.622 91.9929 158.448 88.5469 157.23 83.7153L152.366 64.4301C151.079 59.3287 157.531 55.9563 160.986 59.9246L172.192 72.7993C175.482 76.5783 181.667 73.7088 180.906 68.757L177.952 49.5381C177.149 44.3166 183.939 41.5802 186.981 45.8991L196.795 59.8305C199.693 63.945 206.169 61.6822 205.874 56.6581L204.761 37.7013C204.45 32.4101 211.505 30.3357 214.108 34.9529L222.505 49.8474C224.985 54.2467 231.681 52.614 231.857 47.5667L232.506 29.0329C232.692 23.7229 239.936 22.3295 242.078 27.1917L249.031 42.9699C251.072 47.6025 257.915 46.6163 258.565 41.5959L260.893 23.6137C261.576 18.3367 268.935 17.6369 270.6 22.6906L276.068 39.2804C277.655 44.094 284.572 43.7642 285.693 38.8214L289.624 21.4937Z" fill="#6A5C3E"/>
</svg>
