<svg width="25" height="25" viewBox="0 0 25 25" fill="none" xmlns="http://www.w3.org/2000/svg">
<g clip-path="url(#clip0_365_6801)">
<path d="M24.8675 18.2508C24.8372 18.1855 24.809 18.1314 24.7828 18.088C24.349 17.3069 23.5201 16.348 22.2966 15.2112L22.2708 15.1852L22.2578 15.1724L22.2447 15.1593H22.2316C21.6763 14.63 21.3247 14.274 21.1774 14.0918C20.908 13.7447 20.8476 13.3933 20.9949 13.0373C21.0989 12.7683 21.4897 12.2002 22.1664 11.3323C22.5223 10.8724 22.8042 10.5037 23.0123 10.226C24.5137 8.23003 25.1646 6.95458 24.9649 6.39915L24.8873 6.26936C24.8352 6.19121 24.7007 6.11973 24.4841 6.05453C24.2669 5.98948 23.9893 5.97872 23.6507 6.02207L19.9021 6.04797C19.8414 6.02645 19.7547 6.02846 19.6417 6.05453C19.5288 6.08061 19.4724 6.0937 19.4724 6.0937L19.4072 6.12629L19.3554 6.16546C19.312 6.19135 19.2642 6.2369 19.2121 6.302C19.1603 6.36688 19.1169 6.44301 19.0823 6.52977C18.6742 7.57977 18.2101 8.556 17.6894 9.45842C17.3683 9.99653 17.0734 10.4629 16.8041 10.8577C16.5351 11.2525 16.3095 11.5433 16.1274 11.7297C15.9451 11.9163 15.7805 12.0658 15.6327 12.1787C15.4851 12.2917 15.3724 12.3394 15.2944 12.322C15.2162 12.3045 15.1426 12.2872 15.0729 12.2699C14.9515 12.1917 14.8538 12.0854 14.7802 11.951C14.7063 11.8165 14.6565 11.6472 14.6305 11.4433C14.6046 11.2392 14.5892 11.0637 14.5849 10.9161C14.5808 10.7687 14.5827 10.5602 14.5915 10.2912C14.6005 10.0221 14.6046 9.84002 14.6046 9.74455C14.6046 9.41475 14.611 9.05681 14.6239 8.67066C14.637 8.28451 14.6476 7.97855 14.6565 7.75315C14.6654 7.52752 14.6695 7.28881 14.6695 7.03715C14.6695 6.78549 14.6542 6.58813 14.6239 6.44488C14.594 6.30182 14.5481 6.16295 14.4876 6.02832C14.4267 5.89383 14.3376 5.78979 14.2207 5.71593C14.1036 5.64217 13.958 5.58363 13.7847 5.54013C13.3247 5.43605 12.739 5.37975 12.0273 5.37099C10.4134 5.35367 9.37631 5.45789 8.91639 5.68352C8.73417 5.77885 8.56927 5.9091 8.42183 6.07386C8.26559 6.26484 8.24379 6.36906 8.35659 6.38621C8.87732 6.46421 9.24597 6.65081 9.46293 6.94583L9.54112 7.10216C9.60194 7.21495 9.66267 7.41464 9.72344 7.70095C9.78412 7.98726 9.82328 8.30398 9.84052 8.65092C9.88383 9.28449 9.88383 9.82684 9.84052 10.278C9.79707 10.7294 9.75604 11.0807 9.71687 11.3324C9.67771 11.584 9.61917 11.788 9.54112 11.9441C9.46293 12.1003 9.41092 12.1958 9.38484 12.2304C9.3588 12.2651 9.3371 12.2869 9.31987 12.2955C9.20708 12.3387 9.08977 12.3607 8.96837 12.3607C8.84678 12.3607 8.69934 12.2999 8.52582 12.1784C8.35235 12.0568 8.17231 11.8899 7.9857 11.6772C7.7991 11.4645 7.58866 11.1673 7.35427 10.7856C7.12008 10.4038 6.87708 9.95258 6.62542 9.43193L6.4172 9.05435C6.28704 8.81145 6.10924 8.45775 5.88361 7.99359C5.65785 7.52925 5.4583 7.08009 5.28482 6.64621C5.21548 6.46398 5.11131 6.32525 4.97248 6.22978L4.90733 6.19062C4.86402 6.15597 4.7945 6.11918 4.69912 6.07997C4.60361 6.04081 4.50395 6.01273 4.39973 5.99545L0.833215 6.02134C0.468763 6.02134 0.221479 6.10391 0.0912725 6.26881L0.0391624 6.34681C0.0131301 6.39026 0 6.45965 0 6.55516C0 6.65063 0.0260323 6.7678 0.0781424 6.90653C0.598788 8.13018 1.16498 9.3103 1.77671 10.4471C2.38845 11.5838 2.92004 12.4995 3.37116 13.1933C3.82237 13.8876 4.28228 14.5429 4.75091 15.1588C5.21954 15.775 5.52974 16.1698 5.68151 16.3433C5.83346 16.5171 5.95282 16.647 6.03958 16.7338L6.36505 17.0461C6.57331 17.2544 6.87913 17.5039 7.28265 17.7945C7.68627 18.0854 8.1331 18.3717 8.62338 18.6539C9.11375 18.9357 9.68423 19.1657 10.3351 19.3435C10.9859 19.5216 11.6194 19.593 12.2355 19.5585H13.7325C14.036 19.5323 14.266 19.4368 14.4224 19.2721L14.4742 19.2068C14.509 19.1551 14.5416 19.0746 14.5717 18.9663C14.6021 18.8578 14.6173 18.7384 14.6173 18.6084C14.6084 18.2353 14.6368 17.8991 14.7017 17.5997C14.7666 17.3005 14.8405 17.0748 14.9232 16.9229C15.0059 16.7711 15.0992 16.643 15.203 16.5391C15.307 16.435 15.3811 16.372 15.4246 16.3503C15.4679 16.3284 15.5024 16.3136 15.5284 16.3047C15.7367 16.2353 15.9818 16.3025 16.2641 16.5066C16.5461 16.7106 16.8107 16.9624 17.0582 17.2616C17.3055 17.5612 17.6026 17.8972 17.9497 18.2703C18.2969 18.6435 18.6006 18.9209 18.8608 19.1034L19.121 19.2596C19.2948 19.3638 19.5205 19.4593 19.7982 19.546C20.0754 19.6328 20.3183 19.6545 20.5269 19.6111L23.859 19.5591C24.1886 19.5591 24.445 19.5046 24.6269 19.3963C24.8092 19.2878 24.9175 19.1683 24.9524 19.0383C24.9872 18.9082 24.9891 18.7606 24.959 18.5956C24.9282 18.4309 24.8977 18.3158 24.8675 18.2508Z" fill="white"/>
</g>
<defs>
<clipPath id="clip0_365_6801">
<rect width="25" height="25" fill="white"/>
</clipPath>
</defs>
</svg>
