<svg width="387" height="725" viewBox="0 0 387 725" fill="none" xmlns="http://www.w3.org/2000/svg">
<path d="M188.834 34.4369C189.565 29.0457 197.435 29.0457 198.166 34.4369V34.4369C198.862 39.574 206.24 40.016 207.241 34.9296V34.9296C208.272 29.6932 215.903 30.1409 216.315 35.4619L216.549 38.497C216.944 43.6026 224.17 44.2552 225.473 39.303V39.303C226.814 34.2078 234.299 35.0967 234.409 40.3642L234.524 45.8791C234.631 50.9657 241.742 52.0546 243.365 47.2329V47.2329C245.035 42.2726 252.388 43.6098 252.205 48.8405L251.929 56.6992C251.751 61.7796 258.75 63.32 260.721 58.6341V58.6341C262.75 53.8121 269.975 55.6177 269.497 60.8271L268.58 70.8101C268.113 75.8963 274.992 77.9152 277.348 73.3835V73.3835C279.775 68.7162 286.867 71.0231 286.084 76.2247L284.307 88.0251C283.538 93.1269 290.277 95.6632 293.063 91.3209V91.3209C295.936 86.8427 302.876 89.697 301.768 94.9009L298.952 108.117C297.86 113.242 304.42 116.345 307.69 112.251V112.251C311.068 108.021 317.816 111.481 316.351 116.694L312.163 131.603C310.776 136.541 316.835 140.117 320.487 136.516L321.734 135.286C325.518 131.555 331.739 135.522 329.954 140.527L323.882 157.545C322.218 162.209 327.619 166.195 331.585 163.23L334.71 160.894C338.834 157.81 344.364 162.221 342.274 166.927L334.056 185.433C332.129 189.771 336.766 194.101 340.962 191.882L346.347 189.036C350.732 186.718 355.452 191.51 353.068 195.86L342.637 214.892C340.463 218.857 344.251 223.441 348.555 222.054L356.462 219.507C360.987 218.049 364.801 223.134 362.136 227.07L349.608 245.566C347.2 249.121 350.097 253.857 354.358 253.332L364.849 252.042C369.365 251.486 372.215 256.761 369.276 260.234L354.978 277.13C352.338 280.25 354.353 285.047 358.429 285.346L371.281 286.289C375.643 286.609 377.521 291.981 374.307 294.949L358.767 309.301C355.879 311.968 357.056 316.77 360.85 317.8L375.549 321.789C379.655 322.903 380.582 328.31 377.082 330.728L361 341.838C357.836 344.024 358.221 348.815 361.695 350.467L377.504 357.985C381.308 359.793 381.308 365.207 377.504 367.015L361.695 374.533C358.221 376.185 357.836 380.976 361 383.162L377.082 394.272C380.582 396.69 379.655 402.097 375.549 403.211L360.85 407.2C357.056 408.23 355.879 413.032 358.767 415.699L374.307 430.051C377.521 433.019 375.643 438.391 371.281 438.711L358.429 439.654C354.353 439.953 352.338 444.75 354.978 447.87L369.276 464.766C372.215 468.239 369.365 473.514 364.849 472.958L354.358 471.668C350.097 471.143 347.2 475.879 349.608 479.434L362.136 497.93C364.801 501.866 360.987 506.951 356.462 505.493L348.554 502.946C344.251 501.559 340.463 506.143 342.637 510.108L353.068 529.14C355.452 533.49 350.732 538.282 346.347 535.964L340.962 533.118C336.766 530.899 332.129 535.229 334.056 539.567L342.274 558.073C344.364 562.779 338.834 567.19 334.71 564.106L331.585 561.77C327.619 558.805 322.218 562.791 323.882 567.455L329.954 584.473C331.739 589.478 325.518 593.445 321.734 589.714L320.487 588.484C316.835 584.883 310.776 588.459 312.163 593.397L316.351 608.306C317.816 613.519 311.068 616.979 307.69 612.749V612.749C304.42 608.655 297.86 611.758 298.952 616.883L301.768 630.099C302.876 635.303 295.936 638.157 293.063 633.679V633.679C290.277 629.337 283.538 631.873 284.307 636.975L286.084 648.775C286.867 653.977 279.775 656.284 277.348 651.617V651.617C274.992 647.085 268.113 649.104 268.58 654.19L269.497 664.173C269.975 669.382 262.75 671.188 260.721 666.366V666.366C258.75 661.68 251.751 663.22 251.929 668.301L252.205 676.159C252.388 681.39 245.035 682.727 243.365 677.767V677.767C241.742 672.945 234.631 674.034 234.524 679.121L234.409 684.636C234.299 689.903 226.814 690.792 225.473 685.697V685.697C224.17 680.745 216.944 681.397 216.549 686.503L216.315 689.538C215.903 694.859 208.272 695.307 207.241 690.07V690.07C206.24 684.984 198.862 685.426 198.166 690.563V690.563C197.435 695.954 189.565 695.954 188.834 690.563V690.563C188.138 685.426 180.76 684.984 179.759 690.07V690.07C178.728 695.307 171.097 694.859 170.685 689.538L170.451 686.503C170.056 681.397 162.83 680.745 161.527 685.697V685.697C160.186 690.792 152.701 689.903 152.591 684.636L152.476 679.121C152.369 674.034 145.258 672.945 143.635 677.767V677.767C141.965 682.727 134.612 681.39 134.795 676.159L135.071 668.301C135.249 663.22 128.25 661.68 126.279 666.366V666.366C124.25 671.188 117.025 669.382 117.503 664.173L118.42 654.19C118.887 649.104 112.008 647.085 109.652 651.617V651.617C107.225 656.284 100.133 653.977 100.916 648.775L102.693 636.975C103.462 631.873 96.7233 629.337 93.9371 633.679V633.679C91.0637 638.157 84.1237 635.303 85.2323 630.099L88.048 616.883C89.1398 611.758 82.58 608.655 79.3103 612.749V612.749C75.9318 616.979 69.1844 613.519 70.6487 608.306L74.8372 593.397C76.2244 588.459 70.1653 584.883 66.5131 588.484L65.2659 589.714C61.482 593.445 55.2606 589.478 57.0462 584.473L63.118 567.455C64.782 562.791 59.3807 558.805 55.4147 561.77L52.2901 564.106C48.166 567.19 42.6364 562.779 44.7263 558.073L52.944 539.567C54.8705 535.229 50.2342 530.899 46.0376 533.118L40.6529 535.964C36.2682 538.282 31.5478 533.49 33.9316 529.14L44.3633 510.108C46.5365 506.143 42.7492 501.559 38.4455 502.946L30.5375 505.493C26.0127 506.951 22.1986 501.866 24.8645 497.93L37.392 479.434C39.7995 475.879 36.9027 471.143 32.6415 471.668L22.1513 472.958C17.6354 473.514 14.7847 468.239 17.724 464.766L32.0222 447.87C34.6625 444.75 32.6475 439.953 28.5713 439.654L15.7191 438.711C11.3565 438.391 9.47907 433.019 12.6925 430.051L28.2329 415.699C31.1205 413.032 29.9436 408.23 26.1501 407.2L11.4506 403.211C7.34465 402.097 6.41775 396.69 9.91813 394.272L25.9999 383.162C29.1644 380.976 28.7786 376.185 25.3051 374.533L9.4961 367.015C5.69232 365.207 5.69232 359.793 9.4961 357.985L25.3051 350.467C28.7786 348.815 29.1644 344.024 25.9999 341.838L9.91814 330.728C6.41776 328.31 7.34466 322.903 11.4506 321.789L26.1501 317.8C29.9436 316.77 31.1205 311.968 28.2329 309.301L12.6925 294.949C9.47908 291.981 11.3566 286.609 15.7191 286.289L28.5713 285.346C32.6475 285.047 34.6625 280.25 32.0222 277.13L17.724 260.234C14.7847 256.761 17.6354 251.486 22.1513 252.042L32.6415 253.332C36.9027 253.857 39.7996 249.121 37.392 245.566L24.8645 227.07C22.1986 223.134 26.0127 218.049 30.5375 219.507L38.4455 222.054C42.7492 223.441 46.5365 218.857 44.3633 214.892L33.9316 195.86C31.5478 191.51 36.2682 186.718 40.6529 189.036L46.0376 191.882C50.2342 194.101 54.8705 189.771 52.944 185.433L44.7263 166.927C42.6364 162.221 48.166 157.81 52.2901 160.894L55.4146 163.23C59.3806 166.195 64.782 162.209 63.118 157.545L57.0462 140.527C55.2606 135.522 61.4819 131.555 65.2659 135.286L66.5131 136.516C70.1652 140.117 76.2244 136.541 74.8372 131.603L70.6487 116.694C69.1844 111.481 75.9318 108.021 79.3103 112.251V112.251C82.58 116.345 89.1398 113.242 88.048 108.117L85.2323 94.9009C84.1237 89.697 91.0637 86.8427 93.9371 91.3209V91.3209C96.7233 95.6632 103.462 93.1269 102.693 88.025L100.916 76.2247C100.133 71.0231 107.225 68.7162 109.652 73.3835V73.3835C112.008 77.9152 118.887 75.8963 118.42 70.8101L117.503 60.8271C117.025 55.6177 124.25 53.8121 126.279 58.6341V58.6341C128.25 63.32 135.249 61.7796 135.071 56.6991L134.795 48.8405C134.612 43.6098 141.965 42.2726 143.635 47.2329V47.2329C145.258 52.0546 152.369 50.9658 152.476 45.8791L152.591 40.3643C152.701 35.0967 160.186 34.2078 161.527 39.303V39.303C162.83 44.2552 170.056 43.6026 170.451 38.497L170.685 35.4619C171.097 30.1408 178.728 29.6932 179.759 34.9296V34.9296C180.76 40.016 188.138 39.574 188.834 34.4369V34.4369Z" fill="#A05651"/>
<rect x="15" y="44" width="355" height="635" rx="51" fill="#A05651"/>
</svg>
