<svg width="173" height="174" viewBox="0 0 173 174" fill="none" xmlns="http://www.w3.org/2000/svg">
<path d="M82.5673 4.16602C83.3772 -0.193043 89.6228 -0.193035 90.4327 4.16603L92.0723 12.9907C92.7838 16.8196 97.9912 17.4774 99.6324 13.9457L103.415 5.80608C105.284 1.78539 111.333 3.3386 111.033 7.76213L110.427 16.7173C110.164 20.6028 115.044 22.5351 117.512 19.5225L123.2 12.5793C126.01 9.14958 131.483 12.1584 130.093 16.3685L127.278 24.8915C126.057 28.5895 130.303 31.6747 133.443 29.3705L140.679 24.06C144.254 21.4368 148.806 25.7122 146.413 29.4443L141.567 36.9996C139.465 40.2777 142.81 44.322 146.424 42.871L154.754 39.5269C158.868 37.8751 162.215 43.1484 158.968 46.1679L152.396 52.2808C149.544 54.9331 151.779 59.6823 155.641 59.1757L164.54 58.0082C168.936 57.4314 170.866 63.3713 166.971 65.4886L159.085 69.775C155.663 71.6348 156.646 76.7906 160.512 77.2602L169.423 78.3425C173.824 78.8771 174.216 85.1103 169.916 86.1924L161.212 88.3829C157.436 89.3333 157.106 94.5717 160.734 95.988L169.095 99.2522C173.225 100.865 172.055 106.999 167.621 106.978L158.645 106.935C154.751 106.917 153.129 111.909 156.291 114.183L163.577 119.423C167.177 122.012 164.517 127.663 160.228 126.54L151.545 124.267C147.778 123.28 144.966 127.712 147.462 130.7L153.217 137.589C156.059 140.992 152.078 145.804 148.203 143.649L140.358 139.288C136.955 137.395 133.129 140.988 134.804 144.504L138.664 152.607C140.571 156.61 135.518 160.281 132.301 157.23L125.787 151.055C122.961 148.375 118.362 150.904 119.11 154.726L120.834 163.534C121.685 167.885 115.878 170.185 113.521 166.43L108.748 158.828C106.677 155.53 101.593 156.836 101.367 160.723L100.846 169.684C100.589 174.11 94.3927 174.893 93.0428 170.67L90.3101 162.12C89.1244 158.411 83.8756 158.411 82.6899 162.12L79.9572 170.67C78.6073 174.893 72.411 174.11 72.1538 169.684L71.6331 160.723C71.4072 156.836 66.3233 155.53 64.2523 158.828L59.4792 166.43C57.1215 170.185 51.3146 167.885 52.1662 163.534L53.8903 154.726C54.6383 150.904 50.0388 148.375 47.2126 151.055L40.6991 157.23C37.4817 160.281 32.429 156.61 34.3359 152.607L38.1964 144.504C39.8714 140.988 36.0452 137.395 32.6415 139.288L24.7969 143.649C20.9219 145.804 16.9408 140.992 19.7833 137.589L25.5377 130.7C28.0344 127.712 25.2219 123.28 21.4545 124.267L12.7716 126.54C8.48256 127.663 5.82335 122.012 9.4227 119.423L16.7094 114.183C19.871 111.909 18.249 106.917 14.3546 106.935L5.379 106.978C0.945381 106.999 -0.224905 100.865 3.90518 99.2522L12.2663 95.988C15.8941 94.5717 15.5645 89.3333 11.7878 88.3829L3.08351 86.1923C-1.21609 85.1103 -0.823923 78.8771 3.57739 78.3425L12.4876 77.2602C16.3536 76.7906 17.3371 71.6348 13.9155 69.775L6.0294 65.4886C2.13396 63.3713 4.06395 57.4314 8.45994 58.0082L17.3594 59.1758C21.2207 59.6823 23.4555 54.9331 20.6039 52.2808L14.0315 46.1679C10.785 43.1484 14.1316 37.8751 18.246 39.5269L26.5755 42.871C30.1896 44.322 33.5353 40.2777 31.4328 36.9996L26.5872 29.4442C24.1936 25.7122 28.7464 21.4368 32.3208 24.06L39.5569 29.3705C42.6966 31.6747 46.9429 28.5895 45.7218 24.8915L42.9073 16.3684C41.517 12.1584 46.9901 9.14958 49.7998 12.5793L55.4879 19.5225C57.956 22.5351 62.8362 20.6028 62.573 16.7173L61.9665 7.76212C61.667 3.33859 67.7163 1.78539 69.5848 5.80609L73.3676 13.9457C75.0088 17.4774 80.2162 16.8196 80.9277 12.9907L82.5673 4.16602Z" fill="#6A5C3E"/>
</svg>
