<svg width="198" height="199" viewBox="0 0 198 199" fill="none" xmlns="http://www.w3.org/2000/svg">
<path d="M95.0673 4.16603C95.8772 -0.193027 102.123 -0.193047 102.933 4.16602L105.512 18.0498C106.224 21.8787 111.431 22.5366 113.072 19.0049L119.024 6.19881C120.892 2.17811 126.942 3.7313 126.642 8.15483L125.688 22.244C125.425 26.1295 130.305 28.0617 132.773 25.0492L141.722 14.1255C144.532 10.6958 150.005 13.7046 148.615 17.9146L144.187 31.3238C142.965 35.0219 147.212 38.107 150.351 35.8029L161.736 27.4479C165.31 24.8247 169.863 29.1001 167.47 32.8321L159.846 44.7189C157.744 47.997 161.089 52.0413 164.703 50.5904L177.808 45.3291C181.923 43.6772 185.269 48.9505 182.023 51.9701L171.682 61.5874C168.831 64.2397 171.065 68.989 174.927 68.4824L188.928 66.6455C193.324 66.0687 195.254 72.0086 191.359 74.1259L178.952 80.8696C175.53 82.7294 176.514 87.8852 180.38 88.3548L194.398 90.0576C198.799 90.5922 199.191 96.8254 194.892 97.9075L181.197 101.354C177.421 102.304 177.091 107.543 180.719 108.959L193.873 114.094C198.003 115.707 196.833 121.842 192.4 121.821L178.278 121.753C174.384 121.734 172.762 126.726 175.924 129L187.388 137.246C190.987 139.835 188.328 145.486 184.039 144.363L170.378 140.785C166.611 139.799 163.798 144.23 166.295 147.219L175.348 158.057C178.191 161.459 174.21 166.272 170.335 164.117L157.993 157.255C154.589 155.362 150.763 158.955 152.438 162.471L158.511 175.22C160.418 179.222 155.366 182.893 152.148 179.843L141.901 170.127C139.074 167.447 134.475 169.976 135.223 173.798L137.935 187.656C138.787 192.008 132.98 194.307 130.622 190.552L123.113 178.593C121.042 175.295 115.958 176.6 115.732 180.488L114.913 194.585C114.656 199.012 108.459 199.794 107.11 195.571L102.81 182.12C101.624 178.411 96.3756 178.411 95.1899 182.12L90.8905 195.571C89.5406 199.794 83.3443 199.012 83.0871 194.585L82.2679 180.488C82.042 176.6 76.9581 175.295 74.8871 178.593L67.3777 190.552C65.02 194.307 59.213 192.008 60.0646 187.656L62.7771 173.798C63.5252 169.976 58.9256 167.447 56.0995 170.127L45.8518 179.843C42.6344 182.893 37.5816 179.222 39.4886 175.22L45.5623 162.471C47.2373 158.955 43.4111 155.362 40.0074 157.255L27.6655 164.117C23.7905 166.272 19.8094 161.459 22.6519 158.057L31.7052 147.219C34.2019 144.23 31.3895 139.799 27.6221 140.785L13.9613 144.363C9.67224 145.486 7.013 139.835 10.6124 137.246L22.0764 129C25.238 126.726 23.6161 121.734 19.7217 121.753L5.60044 121.821C1.16682 121.842 -0.00349426 115.707 4.12659 114.094L17.2811 108.959C20.9089 107.543 20.5793 102.304 16.8026 101.354L3.1082 97.9075C-1.1914 96.8254 -0.799261 90.5922 3.60206 90.0576L17.6204 88.3548C21.4864 87.8852 22.47 82.7294 19.0483 80.8696L6.64121 74.1259C2.74577 72.0086 4.67573 66.0687 9.07173 66.6455L23.0732 68.4824C26.9345 68.989 29.1693 64.2397 26.3177 61.5874L15.9775 51.9701C12.731 48.9505 16.0775 43.6772 20.1919 45.3291L33.2966 50.5903C36.9107 52.0413 40.2564 47.997 38.154 44.7189L30.5303 32.8322C28.1367 29.1001 32.6895 24.8247 36.2639 27.4479L47.6485 35.8029C50.7882 38.107 55.0346 35.0219 53.8134 31.3238L49.3854 17.9146C47.9951 13.7046 53.4681 10.6958 56.2779 14.1255L65.227 25.0492C67.695 28.0617 72.5752 26.1295 72.3121 22.244L71.3579 8.15486C71.0583 3.73132 77.1077 2.1781 78.9762 6.1988L84.9276 19.0049C86.5688 22.5366 91.7762 21.8787 92.4877 18.0498L95.0673 4.16603Z" fill="#4E4B42"/>
</svg>
