<svg width="185" height="186" viewBox="0 0 185 186" fill="none" xmlns="http://www.w3.org/2000/svg">
<path d="M88.5673 4.16603C89.3772 -0.193029 95.6228 -0.193045 96.4327 4.16602L98.5235 15.419C99.2349 19.2479 104.442 19.9058 106.084 16.3741L110.907 5.9946C112.776 1.9739 118.825 3.52709 118.526 7.95062L117.752 19.3701C117.489 23.2556 122.369 25.1879 124.837 22.1753L132.091 13.3215C134.9 9.89176 140.373 12.9006 138.983 17.1106L135.394 27.979C134.173 31.677 138.419 34.7622 141.559 32.4581L150.786 25.6862C154.361 23.063 158.914 27.3384 156.52 31.0705L150.341 40.7048C148.239 43.983 151.584 48.0273 155.198 46.5763L165.82 42.312C169.934 40.6601 173.281 45.9334 170.034 48.9529L161.654 56.748C158.802 59.4003 161.037 64.1495 164.898 63.6429L176.246 62.1541C180.642 61.5773 182.572 67.5172 178.677 69.6345L168.621 75.1004C165.199 76.9602 166.183 82.116 170.049 82.5856L181.411 83.9657C185.812 84.5004 186.204 90.7336 181.905 91.8156L170.805 94.6089C167.028 95.5593 166.699 100.798 170.327 102.214L180.989 106.376C185.119 107.989 183.948 114.124 179.515 114.103L168.069 114.048C164.175 114.029 162.553 119.021 165.714 121.295L175.006 127.978C178.606 130.567 175.946 136.218 171.657 135.095L160.585 132.195C156.818 131.209 154.005 135.641 156.502 138.629L163.84 147.413C166.682 150.816 162.701 155.628 158.826 153.474L148.823 147.912C145.419 146.019 141.593 149.612 143.268 153.128L148.191 163.461C150.098 167.464 145.045 171.135 141.828 168.084L133.522 160.209C130.696 157.53 126.096 160.059 126.844 163.88L129.043 175.113C129.894 179.464 124.087 181.763 121.73 178.008L115.643 168.315C113.572 165.017 108.488 166.322 108.262 170.21L107.598 181.637C107.341 186.063 101.145 186.846 99.7948 182.622L96.3101 171.72C95.1244 168.011 89.8756 168.011 88.6899 171.72L85.2052 182.622C83.8553 186.846 77.659 186.063 77.4018 181.637L76.7378 170.21C76.5119 166.322 71.428 165.017 69.357 168.315L63.2705 178.008C60.9128 181.763 55.1058 179.464 55.9574 175.113L58.1559 163.88C58.904 160.059 54.3044 157.53 51.4783 160.209L43.1724 168.084C39.955 171.135 34.9022 167.464 36.8092 163.461L41.732 153.128C43.4071 149.612 39.5808 146.019 36.1771 147.912L26.1738 153.474C22.2988 155.628 18.3177 150.816 21.1602 147.413L28.498 138.629C30.9948 135.641 28.1824 131.209 24.4149 132.195L13.3427 135.095C9.05362 136.218 6.39439 130.567 9.99374 127.978L19.2855 121.295C22.4471 119.021 20.8252 114.029 16.9308 114.048L5.4853 114.103C1.05168 114.124 -0.118631 107.989 4.01146 106.376L14.6734 102.214C18.3012 100.798 17.9716 95.5593 14.1949 94.6089L3.09537 91.8156C-1.20423 90.7336 -0.812088 84.5004 3.58923 83.9657L14.9513 82.5856C18.8174 82.116 19.8009 76.9602 16.3792 75.1004L6.32307 69.6345C2.42764 67.5172 4.3576 61.5773 8.7536 62.1541L20.102 63.6429C23.9633 64.1495 26.1982 59.4003 23.3465 56.748L14.9656 48.9529C11.7191 45.9334 15.0656 40.6601 19.1801 42.312L29.8016 46.5763C33.4157 48.0273 36.7614 43.983 34.659 40.7048L28.4799 31.0705C26.0863 27.3384 30.6391 23.063 34.2135 25.6862L43.4409 32.458C46.5805 34.7622 50.8269 31.677 49.6058 27.979L46.0168 17.1106C44.6265 12.9006 50.0995 9.89175 52.9093 13.3214L60.1627 22.1753C62.6307 25.1878 67.5109 23.2556 67.2478 19.3701L66.4744 7.95064C66.1748 3.5271 72.2241 1.97389 74.0927 5.99458L78.9163 16.3741C80.5576 19.9058 85.765 19.248 86.4765 15.4191L88.5673 4.16603Z" fill="#997D4E"/>
</svg>
